<svg version="1.1" xmlns="http://www.w3.org/2000/svg" xmlns:xlink="http://www.w3.org/1999/xlink" width="511.5" height="54.20632" viewBox="0,0,511.5,54.20632"><g transform="translate(-64.25,-152.89684)"><g data-paper-data="{&quot;isPaintingLayer&quot;:true}" fill-rule="nonzero" stroke="#4e4e4e" stroke-width="3.5" stroke-linejoin="miter" stroke-miterlimit="10" stroke-dasharray="" stroke-dashoffset="0" style="mix-blend-mode: normal"><path d="M66.60769,196.16945c-0.25542,-9.39032 -0.60769,-23.40964 -0.60769,-29.30422c0,-5.21006 8.05755,-12.21839 17.33788,-12.21839c45.45421,0 400.9916,0 474.19113,0c8.37023,0 16.47099,4.09988 16.47099,9.77471c0,10.17288 0,25.40691 0,31.1569c0,4.37736 -5.70503,9.77471 -17.33788,9.77471c-84.20264,0 -434.43303,0 -475.92491,0c-7.91896,0 -13.98424,-3.84325 -14.12951,-9.18372z" fill="#7c7c7c" stroke-linecap="butt"/><path d="M141.07304,168.14817l-23.40614,25.0477l-22.53925,-25.65861" fill="none" stroke-linecap="round"/><path d="M239.03208,167.53725l-23.40614,25.0477l-22.53925,-25.65861" fill="none" stroke-linecap="round"/><path d="M342.97269,167.78162l-23.40614,25.0477l-22.53925,-25.65861" fill="none" stroke-linecap="round"/><path d="M435.73037,167.1707l-23.40614,25.0477l-22.53925,-25.65861" fill="none" stroke-linecap="round"/><path d="M534.55631,167.78162l-23.40614,25.0477l-22.53925,-25.65861" fill="none" stroke-linecap="round"/></g></g></svg>