<svg version="1.1" xmlns="http://www.w3.org/2000/svg" xmlns:xlink="http://www.w3.org/1999/xlink" width="73.11807" height="58.15006" viewBox="0,0,73.11807,58.15006"><g transform="translate(-290.56612,-148.8139)"><g data-paper-data="{&quot;isPaintingLayer&quot;:true}" fill-rule="nonzero" stroke-linecap="butt" stroke-linejoin="miter" stroke-miterlimit="10" stroke-dasharray="" stroke-dashoffset="0" style="mix-blend-mode: normal"><path d="M297.66742,194.60441c-0.14803,0.33179 -0.37764,0.3318 -0.37764,0.3318c-3.9185,0 -6.73166,-4.67441 -6.72364,-13.3451c0.1072,-1.60158 0.68775,-9.22457 1.84327,-9.33226c0.65891,-0.06141 1.35708,2.73082 1.79072,3.53008c0.25805,0.47563 1.59015,-3.13724 1.73208,-3.43988c1.23626,-2.63617 1.8417,-1.64306 2.8312,0.89131c2.16922,4.61688 2.09442,-0.58622 4.55047,-0.5613c1.37953,0.01399 1.61272,3.02939 2.8054,3.65883c0.72011,0.38003 2.01589,-2.92133 2.65482,-3.60113c1.59407,-0.49215 2.15743,5.10946 3.40915,4.44768c1.2755,-0.67434 1.87007,-3.69063 3.33035,-3.85793c1.37874,-0.15796 1.16749,3.42397 2.17239,3.42077c0.47996,-0.00152 1.16265,-1.77175 1.48239,-2.33968c1.1066,-1.76635 2.24865,-3.14889 3.69029,-2.09529c1.26957,0.92783 1.59985,4.36458 3.17701,3.80255c1.78402,-0.63575 2.83595,-3.99868 4.66561,-1.11346c0.95439,1.33742 1.77816,-0.89478 2.7641,-1.24157c1.71919,-0.60467 2.44113,3.12959 3.93388,3.42038c0.68403,0.13325 1.60879,-1.68468 2.21879,-1.23396c0.78468,0.57979 1.02134,3.65932 1.14352,5.06097c-0.75438,10.08789 -6.23941,11.8913 -10.06203,13.27416c-4.06146,1.22283 -8.32544,0.22663 -12.42586,0.22663c-4.10907,0 -8.23031,0.20006 -12.30816,0.21046c-2.70548,0.9615 -5.546,0.17655 -8.29814,-0.11407z" fill-opacity="0.8" fill="#e8813c" stroke="#b87418" stroke-width="0"/><path d="M345.44943,168.39175c0,2.20914 -1.79086,4 -4,4c-2.20914,0 -4,-1.79086 -4,-4c0,-2.20914 1.79086,-4 4,-4c2.20914,0 4,1.79086 4,4z" fill="#ff9e59" stroke="#ff9e59" stroke-width="1"/><path d="M299.27675,193.18962c-0.12967,0.15263 -0.33082,0.15263 -0.33082,0.15263c-3.43255,0 -5.89684,-2.15023 -5.88982,-6.13876c0.0939,-0.73673 0.60245,-4.24331 1.61468,-4.29286c0.57719,-0.02825 1.18879,1.25618 1.56865,1.62384c0.22605,0.21879 1.39293,-1.44313 1.51728,-1.58234c1.08296,-1.21264 1.6133,-0.75582 2.48009,0.41c1.9002,2.12377 1.8347,-0.26966 3.98615,-0.2582c1.20846,0.00644 1.41272,1.39353 2.45749,1.68307c0.63081,0.17481 1.76589,-1.34382 2.32558,-1.65653c1.39639,-0.22639 1.88989,2.35035 2.98637,2.04594c1.11732,-0.3102 1.63815,-1.69769 2.91734,-1.77464c1.20776,-0.07266 1.02271,1.57502 1.90299,1.57356c0.42044,-0.00069 1.01846,-0.81501 1.29856,-1.07626c0.96936,-0.81253 1.96979,-1.4485 3.23265,-0.96382c1.11213,0.42681 1.40145,2.00771 2.78301,1.74917c1.56278,-0.29244 2.48425,-1.83939 4.08701,-0.51219c0.83602,0.61521 1.55765,-0.4116 2.42131,-0.57113c1.50599,-0.27815 2.1384,1.43962 3.44603,1.57337c0.5992,0.0613 1.40928,-0.77496 1.94363,-0.56762c0.68738,0.26671 0.89468,1.6833 1.00171,2.32805c-0.66082,4.64045 -5.46564,5.47 -8.8142,6.10613c-3.55779,0.5625 -7.29298,0.10425 -10.88489,0.10425c-3.59948,0 -7.20965,0.09204 -10.78178,0.09682c-2.36996,0.4423 -4.85821,0.08123 -7.26906,-0.05247z" fill-opacity="0.70196" fill="#ffcd61" stroke="#b87418" stroke-width="0"/><text transform="translate(294.26815,190.61993) scale(0.89336,0.89336)" font-size="40" xml:space="preserve" fill="#ff9e59" fill-rule="nonzero" stroke="#ff9e59" stroke-width="2" stroke-linecap="butt" stroke-linejoin="miter" stroke-miterlimit="10" stroke-dasharray="" stroke-dashoffset="0" font-family="Sans Serif" font-weight="normal" text-anchor="start" style="mix-blend-mode: normal"><tspan x="0" dy="0">79</tspan></text><text transform="translate(350.60305,193.84346) scale(1.04964,1.04964)" font-size="40" xml:space="preserve" fill="#f80000" fill-rule="nonzero" stroke="none" stroke-width="1" stroke-linecap="butt" stroke-linejoin="miter" stroke-miterlimit="10" stroke-dasharray="" stroke-dashoffset="0" font-family="Sans Serif" font-weight="normal" text-anchor="start" style="mix-blend-mode: normal"><tspan x="0" dy="0">!</tspan></text></g></g></svg>