<svg version="1.1" xmlns="http://www.w3.org/2000/svg" xmlns:xlink="http://www.w3.org/1999/xlink" width="459.77357" height="461.68759" viewBox="0,0,459.77357,461.68759"><defs><linearGradient x1="253.61575" y1="174.20185" x2="253.61575" y2="199.07072" gradientUnits="userSpaceOnUse" id="color-1"><stop offset="0" stop-color="#c09d00"/><stop offset="1" stop-color="#c09d00" stop-opacity="0"/></linearGradient><linearGradient x1="253.1426" y1="199.52276" x2="225.1891" y2="199.50534" gradientUnits="userSpaceOnUse" id="color-2"><stop offset="0" stop-color="#af8f00"/><stop offset="1" stop-color="#af8f00" stop-opacity="0"/></linearGradient><linearGradient x1="253.08295" y1="199.55806" x2="282.06465" y2="199.54064" gradientUnits="userSpaceOnUse" id="color-3"><stop offset="0" stop-color="#b19000"/><stop offset="1" stop-color="#b19000" stop-opacity="0"/></linearGradient></defs><g transform="translate(-224.22644,-146.81241)"><g data-paper-data="{&quot;isPaintingLayer&quot;:true}" fill-rule="nonzero" stroke-linejoin="miter" stroke-miterlimit="10" stroke-dasharray="" stroke-dashoffset="0" style="mix-blend-mode: normal"><path d="M227.9377,177.2372c0,0 -4.97757,-26.61901 25.61832,-27.09454c27.05255,-0.42045 25.8417,26.86784 25.8417,26.86784" fill="none" stroke="#797979" stroke-width="5" stroke-linecap="round"/><path d="M227.99277,177.16708c0,0 -4.97757,-26.61901 25.61832,-27.09453c27.05255,-0.42045 25.8417,26.86784 25.8417,26.86784" fill="none" stroke="#8e8e8e" stroke-width="1.5" stroke-linecap="round"/><path d="M228.01731,177.29391c0,0 -4.97757,-26.61901 25.61832,-27.09454c27.05255,-0.42045 25.8417,26.86784 25.8417,26.86784" fill="none" stroke="#000000" stroke-width="0.5" stroke-linecap="round"/><path d="M679,606c0,-1.38071 1.11929,-2.5 2.5,-2.5c1.38071,0 2.5,1.11929 2.5,2.5c0,1.38071 -1.11929,2.5 -2.5,2.5c-1.38071,0 -2.5,-1.11929 -2.5,-2.5z" fill="#9966ff" stroke="none" stroke-width="0.5" stroke-linecap="butt"/><path d="M230.98252,179.32885c0,0 -6.43329,-26.7351 22.36911,-26.39487c27.53626,-0.78354 22.99256,28.23608 22.99256,28.23608" fill="none" stroke="#252525" stroke-width="2" stroke-linecap="round"/><path d="M225.2081,224.87419v-50.55323h56.91659v50.55323z" fill="#e5bc00" stroke="none" stroke-width="0" stroke-linecap="butt"/><path d="M225.14163,199.07072v-24.86887h56.94826v24.86888z" fill="url(#color-1)" stroke="none" stroke-width="0" stroke-linecap="butt"/><path d="M225.21445,174.31224l27.95349,0.01742l-0.05067,50.38621l-27.95349,-0.01742z" fill="url(#color-2)" stroke="none" stroke-width="0" stroke-linecap="butt"/><path d="M282.09091,224.73375l-28.9817,0.01742l-0.05254,-50.38621l28.9817,-0.01742z" data-paper-data="{&quot;index&quot;:null}" fill="url(#color-3)" stroke="none" stroke-width="0" stroke-linecap="butt"/><path d="M225.22967,174.23507l56.61719,0.32261l-0.1613,49.84249h-56.29459z" fill="none" stroke="#252525" stroke-width="2" stroke-linecap="round"/><path d="M225.2679,173.98733c0,0 -2.05044,-26.31005 27.59686,-26.1744c29.2208,-1.0904 29.01225,26.56481 29.01225,26.56481" fill="none" stroke="#252525" stroke-width="2" stroke-linecap="round"/></g></g></svg>