<svg version="1.1" xmlns="http://www.w3.org/2000/svg" xmlns:xlink="http://www.w3.org/1999/xlink" width="763" height="486.2343" viewBox="0,0,763,486.2343"><g transform="translate(61.5,68.83043)"><g data-paper-data="{&quot;isPaintingLayer&quot;:true}" fill-rule="nonzero" stroke="none" stroke-linecap="butt" stroke-linejoin="miter" stroke-miterlimit="10" stroke-dasharray="" stroke-dashoffset="0" style="mix-blend-mode: normal"><path d="M-61.5,414v-468h763v468z" fill="#be0000" stroke-width="0"/><path d="M346.82677,15.77461l0.17323,-0.14961l0.57513,-0.183l1.77141,-0.78729l3.72822,-1.22952l1.28603,-0.14226l1.23296,-0.39231l0.00506,-0.00051l0.38939,-0.14834l1.83527,-0.28789l1.77027,-0.56327l2.77856,-0.27786l0.43206,-0.24821l1.33899,0.09797l0.75418,-0.1183l0.61332,0.15576h1.98913l3.90625,0.39063l0.4218,0.13421l2.30108,0.16837l2.83227,1.46497l3.0386,0.96683l1.74617,1.50805l0.39315,0.20336l3.03835,2.48592l0.5781,0.5781l0.54383,0.32354l0.59201,0.8123l0.28605,0.28605l0.00437,0.00534l1.41171,1.21921l0.2043,0.75593l0.86554,1.05788l0.85348,1.65006l0.37015,0.50788l0.70709,-0.2357l1.89633,-0.4282l0.22716,-0.09201l0.85684,-0.15277l0.84898,-0.19171l0.24506,-0.00336l1.9139,-0.34124l13,-1l0.96097,0.02201l0.95645,-0.09564h11l2.16997,0.217l2.17466,0.16341l17,3l0.27448,0.07725l0.28379,0.02782l5,1l0.96844,0.29646l0.99668,0.17996l5.63858,1.61102l4.60337,0.76723l1.36562,0.37034l1.39243,0.25141l7,2l0.5063,0.20103l0.53137,0.11999l24,8l0.67175,0.30113l0.70732,0.20403l9.63165,3.85266l10.62716,3.86442l1.47257,0.7085l1.51767,0.60591l25,13l0.41585,0.27197l0.45381,0.20237l6.39752,3.65572l5.37935,2.68967l1.89833,1.19895l1.92133,1.16173l4,3l1.30548,1.19963l1.37219,1.1227l6.5781,6.5781l0.54383,0.32354l0.59201,0.8123l0.28605,0.28605l2.48592,3.03835l0.85348,1.65006l1.09417,1.5013l1.48532,3.31341l0.2047,0.30704l0.17147,0.32277l0.90227,1.04473l0.51857,1.62979l0.24947,0.46958l0.93754,3.26101l1.0288,3.23337l0.05291,0.5291l0.47257,1.64371l-0.17122,1.36976l0.03637,0.36368v8l-0.19344,1.93443l0.01545,0.2446l-0.12603,0.86118l-0.0866,0.86604l-0.07431,0.23355l-0.2815,1.92359l-1,4l-0.47625,1.32669l-0.01909,0.12171l-0.42637,1.11922l-0.40466,1.12726l-0.06471,0.10483l-0.50181,1.31724l-2.18434,4.36868l4.68566,14.99411l0.26629,1.29231l0.38622,1.26167l0.80156,4.0078l1.44553,5.05937l2.64662,7.05765l0.32515,1.2267l0.44348,1.18905l1.31447,4.99497l0.91172,1.39116l0.99543,1.20964l0.78463,1.50649l2.06961,3.15793l-0.01965,1.37026l2.97884,7.4471l0.26896,0.93239l0.77269,1.53107l0.32546,5.15319l0.37378,5.14991l-0.10842,0.31463l3.83746,9.59366l8.49848,4.24924l1.0045,0.63442l1.06514,0.5263l8,5l1.24072,0.95949l0.14863,0.07688l0.84868,0.69438l0.86743,0.67081l0.10833,0.12753l1.21391,0.9932l6.51298,6.51298l0.26248,0.07094l1.21306,1.4046l2.01148,2.01148l2.48592,3.03835l0.20336,0.39315l1.50805,1.74617l0.96683,3.0386l1.46497,2.83227l0.16837,2.30108l0.13421,0.4218l0.39063,3.90625v2.84467l0.13544,1.85096l-0.13544,0.23576v1.06861l-0.03637,0.36368l0.17122,1.36976l-0.47257,1.64371l-0.05291,0.5291l-1.0288,3.23337l-0.93754,3.26101l-0.24947,0.46958l-0.51857,1.62979l-0.90227,1.04473l-0.17147,0.32277l-1.24189,1.86283l-0.46562,1.72279l-2.66201,2.29901l-0.1223,0.14889l-0.67988,0.54391l-5.12956,4.43007l-0.67749,0.21556l-0.55516,0.44413l-6.53141,1.81069l-0.82969,0.26399l-0.19173,0.01917l-3.3895,0.93966l-1.69172,-0.56821h-5.6333l-3.90625,-0.39062l-0.08302,-0.02641l-0.08711,-0.00119l-3.82932,-0.86469l-3,-1l-0.94967,-0.42571l-0.99262,-0.31274l-7,-3l-3.43654,-1.89779l-0.62312,-0.53879l-0.73168,-0.37845l-3.03835,-2.48592l-4,-4l-0.71843,-0.87808l-0.80943,-0.79498l-5,-6l-0.9274,-1.37002l-0.13144,-0.13509l-0.55704,-0.88198l-0.58476,-0.86385l-0.07108,-0.17456l-0.88343,-1.39877l-2,-4l-0.44965,-1.18034h-0.18967l-0.36368,-0.03637l-1.36976,0.17122l-0.48673,-0.13994l-33.93923,4.05245l-1.02232,0.49071l-0.71267,0.25841l-1.37192,0.83587l-1.54734,0.22264l-0.05869,0.02128l-3.66105,0.51393l-3.65927,0.52651l-0.0623,-0.00409l-1.54809,0.21732l-1.55048,-0.4205l-0.75644,-0.0496l-6,-1l-2.37972,-0.64535c-0.0243,1.22159 -0.14459,2.44952 -0.37487,3.68113c-0.2518,1.34669 -1.41024,2.18526 -1.83535,3.32554c-1.01921,2.73382 -3.02041,7.05288 -5.57524,10.14662l4.43528,6.04812l1.91859,3.2515l0.03253,0.04463l0.01958,0.04367l0.02432,0.04122l0.01762,0.05234l0.49615,1.1068l0.49469,0.60462l0.04002,0.07738l0.06075,0.06244l2.09631,3.31916l0.10071,0.20143l0.41361,0.47891l0.30476,0.95783l0.18092,0.36183l1.39754,3.66855l0.28789,1.83527l0.56327,1.77027l0.39063,3.90625v0.40454l0.15576,0.993l-0.15756,0.62038l-0.24333,2.43329l-0.24036,2.45169l-1,5l-0.96485,3.15183l-0.42467,1.94527l-2.24959,3.15614l-1.87666,3.39116l-1.57166,1.22241l-2.42709,2.2303l-8,6l-3.35937,2.03125l-0.08226,0.02868l-0.0704,0.05131l-3.58227,1.60584l-1.31448,0.43816l-0.41088,0.20544l-0.97254,0.37049l-0.92303,0.48075l-5,2l-2.19622,0.63352l-2.18565,0.66908l-3.47378,0.69476l-0.53693,0.17898l-6.04421,2.59038l-1.35292,0.42626l-1.31136,0.54077l-18.93312,5.67994l-3.00032,1.20013l-3.06992,1.53496l-1.65681,0.63116l-1.61784,0.72524l-1.31448,0.43816l-1.01875,0.50937l-2.64523,1.76349l-1.24957,1.24957l-1.59614,1.30594l-1.55057,1.35973l-3.5182,2.513l-0.04962,0.11909l-0.72041,0.70094l-0.24273,0.32363l-2.65625,2.89063l-1.51277,1.07825l-1.33147,1.29549l-1.0873,0.68671l-0.05936,0.08904l-0.38971,0.93531l-1.24782,1.2141l-1.40587,1.7115l-1.98656,1.58925l-1.82338,1.7741l-1.87266,1.18273l-1.3595,1.0876l-0.25432,0.07051l-2.39565,1.91652l-1.57317,1.01965l-1.54421,1.33363l-4.34204,1.38156l-4.25362,1.63364l-2.03894,-0.07673l-1.86541,0.18654h-7l-2.45122,-0.24512l-2.45169,-0.24036l-5,-1l-0.34948,-0.10698l-1.37674,-0.10074l-1.51912,-0.78575l-0.50845,-0.15565l-2.96882,-1.64294l-3.01381,-1.55887l-0.41154,-0.33672l-1.49644,-0.82813l-0.8475,-1.08964l-0.28287,-0.23144l-2,-2l-2.48592,-3.03835l-0.04002,-0.07738l-0.06075,-0.06244l-0.98092,-1.55312l-0.11553,-0.10715l-0.11416,-0.25653l-0.8857,-1.40236l-1,-2l-1.39754,-3.66855l-0.07431,-0.47371l-0.19496,-0.43808l-0.81961,-3.83922l-1,-9l-0.01521,-1.38379l-0.1377,-1.377v-15l0.23021,-2.30211l0.19798,-2.3051l2.5718,-13.71629v-0.66563l-0.15576,-0.61332l0.15576,-0.993v-0.40454l0.39063,-3.90625l0.56327,-1.77027l0.28789,-1.83527l0.9619,-2.52499l0.18695,-1.86947l0.02641,-0.08302l0.00119,-0.08711l0.79979,-3.54192l0.78198,-14.07561v-5.29737l-0.18283,-0.22004l-0.34547,-3.48476l-1.08108,-3.39767l-0.38883,-3.88833l-0.15756,-0.62038l0.15576,-0.993v-0.40454l0.16578,-1.65777l-0.5014,-1.21769l-0.53937,-0.62454l-0.125,-0.39286v15.89286l-0.39062,3.90625l-0.24977,0.78498l-0.05963,0.8216l-1.08806,3.77194l-2,5l-0.26707,0.51278l-0.18568,0.54753l-5,11l-0.69079,1.18906l-0.03713,0.10649l-0.63126,1.04401l-0.61286,1.05492l-0.0756,0.08369l-0.71153,1.17676l-1.661,2.21467l-2.07463,3.28483l-0.06075,0.06244l-0.04002,0.07738l-2.48592,3.03835l-2,2l-3.03835,2.48592l-0.51795,0.26791l-1.71818,1.92918l-3.95205,1.0037l-1.82201,0.94242l-2.65317,0.19413l-2.57841,0.65483l-2.02653,-0.31789l-4.06664,0.29756l-2.24007,-1.28685l-0.57609,-0.09037l-3.66855,-1.39754l-1.11059,-0.55529l-0.97642,-0.27069l-1.3595,-1.0876l-0.28934,-0.18274l-4.2293,5.81528l-0.22216,0.81922l-0.77494,1.51356l-0.98241,3.08759l-1.46977,1.70184l-0.88285,1.72431l-2.14691,1.78383l-2.92235,3.38377l-1.70464,0.46071l-1.9598,1.62836l-6.4201,0.63648l-4.36859,1.1807l-2.02379,-0.54697l-2.08618,0.20682l-4.11504,-1.88283l-3.31154,-0.89501l-0.33844,0.11799l-0.48297,-0.03331l-2.73913,0.54783l-1.5969,0.15656l-1.90846,0.48469l-4.66829,-0.73228l-0.55188,-0.06132l-51.99703,25.99852l-0.76231,0.29041l-0.7166,0.3898l-17.12821,7.21188l-4.37326,6.99721l-0.95949,1.24072l-0.07688,0.14863l-0.69438,0.84868l-0.67081,0.86743l-0.12753,0.10833l-0.9932,1.21391l-9,9l-1.24186,1.01606l-1.31908,1.46191l-4.29045,1.98021l-4.19716,2.17094l-1.9638,0.14369l-1.56446,0.35646l-16,2l-3.92454,0.0969l-0.08565,-0.01591l-0.08658,0.00962l-3.907,-0.38304l-10,-2l-3.00996,-0.92142l-0.22133,-0.04071l-0.25689,-0.10568l-0.26561,-0.08131l-0.1969,-0.10896l-2.91112,-1.19761l-15,-8l-2.69062,-1.80006l-0.184,-0.09517l-0.18721,-0.15317l-0.20104,-0.1345l-0.14462,-0.14831l-2.50548,-2.04993l-6,-6l-0.87632,-1.07106l-0.96773,-0.98924l-6.39289,-7.99111l-0.27557,-0.19402l-0.40658,-0.65867l-0.92496,-1.1562l-2.13519,-3.29429l-0.51531,-1.34176l-0.75497,-1.22306l-1.32637,-3.69488l-0.35911,-1.43646l-0.27752,-0.72259l0.01267,-0.33678l-0.14318,-0.57272l-0.69638,-2.08915l-0.86469,-3.82932l-0.00119,-0.08711l-0.02641,-0.08302l-0.39062,-3.90625v-18l0.39063,-3.90625l0.02641,-0.08302l0.00119,-0.08711l0.86469,-3.82932l0.11852,-0.35555l0.59856,-5.98564v-1.75311l0.24512,-2.45122l0.24036,-2.45169l1,-5l0.05034,-0.16443l0.01912,-0.17089l2.44506,-11.41028v-0.35149l0.19344,-1.93443l-0.01545,-0.2446l0.12603,-0.86118l0.0866,-0.86604l0.07431,-0.23355l0.2815,-1.92359l1,-4l0.57223,-1.59407l0.46942,-1.62731l1.89909,-4.74773l5.9046,-15.74559l0.58055,-1.17637l0.467,-1.22588l6,-12l0.1558,-0.24669l0.11018,-0.27017l9,-17l0.37124,-0.55859l0.28614,-0.60661l3,-5l1.16113,-1.55923l0.1126,-0.21769l0.55114,-0.67362l0.51983,-0.69806l0.18388,-0.16203l1.23106,-1.50463l1.74369,-1.74369l1.35791,-1.81055l6.48453,-10.18998l0.59418,-0.75557l0.49735,-0.82254l0.10837,-0.1445l-0.62016,-0.09728l-3.66855,-1.39754l-0.36183,-0.18092l-0.95783,-0.30476l-0.04278,-0.03695l-0.36291,-0.12097l-2.24791,-1.00769l-2.24987,-1.00332l-7,-4l-1.98078,-1.41056l-0.25507,-0.13193l-0.22999,-0.18817l-2.22499,0.74166l-0.67836,0.15318l-0.6494,0.24883l-11,3l-2.39804,0.40321l-0.27365,0.08707l-0.60254,0.06025l-0.59716,0.10041l-0.28691,-0.012l-2.41963,0.24196h-21.98913l-0.61332,0.15576l-0.993,-0.15576h-0.40454l-3.90625,-0.39062l-1.77027,-0.56327l-1.83527,-0.28789l-0.03346,-0.01275l-1.361,-0.1361l-1.58608,-0.50466l-0.24111,0.03014l-0.74767,-0.21495l-1.03069,-0.16168l-0.38939,-0.14834l-0.00506,-0.00051l-3.23337,-1.0288l-3.26101,-0.93754l-0.46958,-0.24947l-1.62979,-0.51857l-1.04473,-0.90227l-0.32277,-0.17147l-1.70496,-1.13664l-6.60787,-3.30394l-3.31916,-2.09631l-0.06244,-0.06075l-0.07738,-0.04002l-2.47164,-2.02225l-1.38854,-0.87697l-0.06244,-0.06075l-0.07738,-0.04002l-3.03835,-2.48592l-0.24957,-0.24957l-0.11288,-0.07526l-0.93531,-0.38971l-1.2141,-1.24782l-1.7115,-1.40587l-1.58925,-1.98656l-1.7741,-1.82338l-0.87697,-1.38854l-2.02225,-2.47164l-0.04002,-0.07738l-0.06075,-0.06244l-2.09631,-3.31916l-3,-6l-0.63116,-1.65681l-0.72524,-1.61784l-0.12097,-0.36291l-0.03695,-0.04278l-0.30476,-0.95783l-0.18092,-0.36183l-1.39754,-3.66855l-0.28789,-1.83527l-0.56327,-1.77027l-0.39062,-3.90625v-0.40454l-0.15576,-0.993l0.15576,-0.61332v-9.97827l-0.15576,-0.61332l0.15576,-0.993v-0.40454l0.39063,-3.90625l0.56327,-1.77027l0.04611,-0.29394v-0.01868l-0.15576,-0.61332l0.15576,-0.993v-0.40454l0.39063,-3.90625l0.56327,-1.77027l0.28789,-1.83527l0.9619,-2.52499l0.18695,-1.86947l0.56327,-1.77027l0.28789,-1.83527l1.39754,-3.66855l0.18092,-0.36183l0.30476,-0.95783l0.03695,-0.04278l2.12097,-6.36291l0.72524,-1.61784l0.63116,-1.65681l0.67145,-1.3429l2.7106,-6.32474l0.35588,-0.64442l0.26207,-0.68793l2,-4l0.51328,-0.8127l0.41007,-0.86936l2.50602,-4.1767l1.57062,-3.14124l0.83011,-1.31434l0.72932,-1.37283l1.44841,-2.17261l0.38971,-0.93531l0.87345,-0.84984l0.21469,-0.67473l0.36879,-0.42702l0.41246,-1.52611l3.56326,-3.07736l3.07736,-3.56326l0.80711,-0.21814l1.38165,-2.18762l0.06075,-0.06244l0.04002,-0.07738l2.48592,-3.03835l4,-4l1.9066,-1.55994l0.29578,-0.24296l1.79762,-2.1971l2.79349,-2.79349l0.00918,-0.02884l0.57406,-0.6647l0.3378,-0.81072l2.26898,-2.20766l4.24103,-4.91067l0.65388,-0.17673l0.27752,-0.3469l2.74524,-2.80625l0.5601,-0.3734l1.53871,-1.88065l4.24957,-4.24957l0.29685,-0.44528l2.19995,-3.66658l1.9313,-3.8626v-7.62281l-0.51452,-2.57258l-0.24036,-2.45169l-0.23699,-2.36987l-1.72522,-5.17565l-0.805,-3.565l-0.195,-0.435l-1.12097,-3.36291l-0.03695,-0.04278l-0.30476,-0.95783l-0.18092,-0.36183l-1.39754,-3.66855l-0.28789,-1.83527l-0.56327,-1.77027l-0.00051,-0.00506l-0.14834,-0.38939l-0.28789,-1.83527l-0.30045,-0.94426l-0.37053,-0.82656l-1.43816,-4.31448l-2.98052,-5.96104c-1.82907,-3.47409 -2.86424,-7.43125 -2.86424,-11.63018c0,-0.12888 0.00098,-0.25752 0.00292,-0.38594l-0.15868,-1.01161l0.2787,-1.09738c0.25114,-2.53474 0.88087,-4.95816 1.83185,-7.21292l0.68453,-2.69535l1.43027,-1.27384c4.46473,-6.81864 12.17155,-11.32297 20.93041,-11.32297c0.54058,0 1.07716,0.01716 1.60921,0.05096l1.88464,-0.38142l2.57054,1.07106c2.45623,0.61203 4.76876,1.58732 6.87723,2.86551l1.0338,0.43075l0.70704,0.72668c3.37673,2.45421 6.11546,5.73297 7.92042,9.54054l3.75779,7.51558l0.63116,1.65681l0.72524,1.61784l1.12097,3.36291l0.03695,0.04278l0.30476,0.95783l0.18092,0.36183l1.39754,3.66855l0.28789,1.83527l0.56327,1.77027l0.00051,0.00506l0.14834,0.38939l0.28789,1.83527l0.30045,0.94426l0.37053,0.82656l1.12097,3.36291l0.03695,0.04278l0.30476,0.95783l0.18092,0.36183l1.39754,3.66855l0.28789,1.83527l0.56327,1.77027l0.09678,0.96776l2.01093,6.03279l0.86469,3.82932l0.00119,0.08711l0.02641,0.08302l0.39063,3.90625v1.52451l0.51452,2.57258l0.24036,2.45169l0.24512,2.45122v13.98913l0.15576,0.61332l-0.15576,0.993v0.40454l-0.39062,3.90625l-0.56327,1.77027l-0.28789,1.83527l-1.39754,3.66855l-0.18092,0.36183l-0.30476,0.95783l-0.41361,0.47891l-4.10071,8.20143l-0.51328,0.8127l-0.41007,0.86936l-3,5l-0.35624,0.47838l-0.27983,0.52673l-2,3l-1.56364,1.90357l-1.55994,1.9066l-3.29794,3.29794l-0.41659,0.99981l-3.03744,2.95534l2.75147,1.29606l2.82283,0.89817l1.0991,0.94922l1.3138,0.61885l1.96722,2.21475l0.70735,0.61089l1.28003,0.68002l0.83413,0.55609l2.58313,1.03325l2.08675,1.08685l0.2691,0.09382l0.55289,0.33431l0.57304,0.29846l0.22006,0.18109l2.01339,1.2174l8,6l1.30548,1.19963l1.37219,1.1227l7,7l1.23106,1.50463l0.18388,0.16203l0.03265,0.04384l0.02675,-0.01147l0.29184,-0.09195l0.27138,-0.14134l5,-2l1.22845,-0.35436l1.18829,-0.47182l14,-4l1.12277,-0.20272l0.03175,-0.01275l1.35498,-0.23763l1.35377,-0.24443l0.0342,0.00102l1.12377,-0.19708l0.70474,-0.0522l9.07866,-2.26967l2.07823,-0.30413l2.06775,-0.36867l12.71462,-0.97805l5.01228,-0.50123l0.32851,-1.05124l0.69988,-1.64367l0.05,-0.21129l0.41083,-0.87095l0.37727,-0.88601l0.12455,-0.17785l0.76214,-1.61574l1.30454,-2.17423l1.09469,-3.83141l0.55468,-1.39696l0.44254,-1.43643l8,-19l1.87586,-3.44855l0.58644,-0.68703l0.41499,-0.80231l2.48592,-3.03835l3,-3l3.03835,-2.48592l0.07738,-0.04002l0.06244,-0.06075l3.05979,-1.9325l1.03652,-1.16381l3.66855,-0.93169l1.22285,-0.46585l0.59374,-0.09314l0.11533,-0.37674l0.0445,-0.2837l0.14834,-0.38939l0.00051,-0.00506l0.56327,-1.77027l0.28789,-1.83527l1.39754,-3.66855l0.18092,-0.36183l0.22205,-0.69788l0.19949,-1.27174l1.39754,-3.66855l0.18092,-0.36183l0.30476,-0.95783l0.03695,-0.04278l0.1319,-0.39571l0.09678,-0.96776l0.02641,-0.08302l0.00119,-0.08711l0.86469,-3.82932l0.36411,-1.09232l0.04618,-0.63111l0.46179,-0.89279l0.12793,-0.38378l1.60584,-3.58227l1.09417,-1.5013l0.34955,-0.6758l0.29172,-1.02101l0.069,-0.94305l0.74817,-1.44646l0.96925,-2.44109l1.32535,-1.99515l1.10043,-2.1275l1.16187,-1.42007l0.11546,-0.47555l0.75551,-1.00946l1.86638,-2.9551l1.49621,-1.53777l1.2856,-1.71774l2.62785,-2.30442l0.87928,-0.9037l0.74926,-0.31219l5.69521,-4.06801l3.40569,-1.9526l0.72169,-0.23293l0.6453,-0.39834l3.69488,-1.32637l4,-1l1.92359,-0.2815l0.23355,-0.07431l0.86604,-0.0866l0.86118,-0.12603l0.2446,0.01545l1.93443,-0.19344h21l3.90625,0.39063l0.40652,0.12935l0.42625,0.01737l3.80456,0.96783l11,4l2.15545,1.03706l2.16336,1.02045l5,3l1.55923,1.16113l0.21769,0.1126l0.67362,0.55114l0.69806,0.51983l0.16203,0.18388l1.50463,1.23106l2.57934,2.57934l10.55981,9.59983l1.58297,1.7571l1.60021,1.74141l1.93398,2.57864l2.74369,2.74369l2.48592,3.03835l0.04002,0.07738l0.06075,0.06244l2.09631,3.31916l2,4l0.467,1.22588l0.13752,0.27865zM221.75126,303.96447l0.25422,-1.03184l0.13474,-1.05412l6,-26l0.25974,-0.76714l0.15438,-0.79507l2.95274,-9.84247l1.95482,-6.84186l1.03114,-2.59695l0.06794,-0.26547l0.19074,-0.38603l0.1589,-0.40019l0.15163,-0.22826l0.79991,-1.61886l-0.26841,-0.02684l-0.10304,-0.03279l-1.35089,-0.15798l-15.82856,-3.47456l0.01233,0.2918l0.17642,1.76416v6l-0.24512,2.45122l-0.24036,2.45169l-0.65959,3.29793l-0.89807,15.26722l-0.27331,1.71071l-0.16903,1.72414l-2,10l-0.34451,1.12541l-0.22435,1.15538l-3,10l-0.10259,0.24879l-0.05695,0.26302l-3.45847,10.68982l14.08377,-7.04188zM401.46151,314.88675l-0.37581,2.40248l-0.00393,0.28714l-0.13338,0.59067l-0.09358,0.59827l-0.10211,0.2684l-0.25269,1.11906v0.34723l-0.39062,3.90625l-0.56327,1.77027l-0.28789,1.83527l-0.82631,2.16906l-0.03535,0.35347l0.33236,-0.27193l1.90357,-1.56364l3.21474,-2.14316l-0.18175,-0.57121l-1.87078,-4.54332l0.02402,-1.75376l-0.31873,-3.1873v-2.30609zM402.09336,303.51342l-0.08361,1.50489l0.35358,-1.56586zM167.3248,137.02592l3.79555,2.10864l0.98511,-2.46276z" fill="#b30000" stroke-width="0.5"/></g></g></svg>