<svg version="1.1" xmlns="http://www.w3.org/2000/svg" xmlns:xlink="http://www.w3.org/1999/xlink" width="55.38329" height="50.38551" viewBox="0,0,55.38329,50.38551"><g transform="translate(-290.56613,-151.94851)"><g data-paper-data="{&quot;isPaintingLayer&quot;:true}" fill-rule="nonzero" stroke-linecap="butt" stroke-linejoin="miter" stroke-miterlimit="10" stroke-dasharray="" stroke-dashoffset="0" style="mix-blend-mode: normal"><path d="M297.66743,194.91137c-0.14803,0.1556 -0.37764,0.1556 -0.37764,0.1556c-3.9185,0 -6.73166,-2.19212 -6.72364,-6.25834c0.1072,-0.75108 0.68775,-4.32597 1.84327,-4.37647c0.65891,-0.0288 1.35708,1.28065 1.79072,1.65547c0.25805,0.22305 1.59015,-1.47124 1.73208,-1.61317c1.23626,-1.23626 1.8417,-0.77053 2.8312,0.41799c2.16922,2.16514 2.09442,-0.27492 4.55047,-0.26323c1.37953,0.00656 1.61272,1.42067 2.8054,1.71585c0.72011,0.17822 2.01589,-1.36999 2.65482,-1.68879c1.59407,-0.2308 2.15743,2.39614 3.40915,2.08579c1.2755,-0.31624 1.87007,-1.73076 3.33035,-1.80922c1.37874,-0.07408 1.16749,1.60571 2.17239,1.60421c0.47996,-0.00071 1.16265,-0.83088 1.48239,-1.09722c1.1066,-0.82835 2.24865,-1.47671 3.69029,-0.98261c1.26957,0.43512 1.59985,2.04682 3.17701,1.78325c1.78402,-0.29814 2.83595,-1.87523 4.66561,-0.52217c0.95439,0.6272 1.77816,-0.41962 2.7641,-0.58225c1.71919,-0.28357 2.44113,1.46766 3.93388,1.60403c0.68403,0.06249 1.60879,-0.79005 2.21879,-0.57868c0.78468,0.2719 1.02134,1.71608 1.14352,2.3734c-0.75438,4.73083 -6.23941,5.57656 -10.06203,6.22507c-4.06146,0.57346 -8.32544,0.10628 -12.42586,0.10628c-4.10907,0 -8.23031,0.09382 -12.30816,0.0987c-2.70548,0.45091 -5.546,0.0828 -8.29814,-0.05349z" fill="#ffa061" stroke="#b87418" stroke-width="0"/><path d="M345.44942,168.39175c0,2.20914 -1.79086,4 -4,4c-2.20914,0 -4,-1.79086 -4,-4c0,-2.20914 1.79086,-4 4,-4c2.20914,0 4,1.79086 4,4z" fill="#e8a87a" stroke="#e8a87a" stroke-width="1"/><path d="M298.38441,194.41827c-0.13619,0.08133 -0.34743,0.08133 -0.34743,0.08133c-3.60499,0 -6.19307,-1.14576 -6.18569,-3.27107c0.09862,-0.39257 0.63272,-2.26107 1.69579,-2.28747c0.60619,-0.01505 1.2485,0.66936 1.64745,0.86527c0.2374,0.11658 1.46292,-0.76898 1.5935,-0.84316c1.13735,-0.64616 1.69435,-0.40274 2.60468,0.21847c1.99566,1.13166 1.92685,-0.14369 4.18639,-0.13758c1.26916,0.00343 1.48369,0.74255 2.58094,0.89683c0.6625,0.09315 1.8546,-0.71606 2.44241,-0.88269c1.46653,-0.12063 1.98482,1.2524 3.13639,1.09019c1.17345,-0.16529 1.72045,-0.90462 3.06389,-0.94563c1.26843,-0.03872 1.07408,0.83926 1.99858,0.83848c0.44156,-0.00037 1.06963,-0.43428 1.36379,-0.57349c1.01806,-0.43296 2.06874,-0.77184 3.39504,-0.51358c1.16799,0.22743 1.47185,1.06982 2.92282,0.93206c1.64128,-0.15583 2.60905,-0.98013 4.29232,-0.27292c0.87803,0.32782 1.63589,-0.21932 2.54295,-0.30433c1.58164,-0.14821 2.24582,0.76711 3.61914,0.83838c0.6293,0.03266 1.48007,-0.41294 2.04127,-0.30246c0.7219,0.14212 0.93962,0.89695 1.05203,1.24051c-0.69402,2.47268 -5.7402,2.91472 -9.25698,3.25368c-3.73651,0.29973 -7.65933,0.05555 -11.43169,0.05555c-3.78031,0 -7.57182,0.04904 -11.3234,0.05159c-2.48902,0.23568 -5.10227,0.04328 -7.63422,-0.02796z" fill-opacity="0.69412" fill="#ffcd61" stroke="#b87418" stroke-width="0"/><text transform="translate(294.26816,190.72033) scale(0.89336,0.89336)" font-size="40" xml:space="preserve" fill="#e8a87a" fill-rule="nonzero" stroke="#e8a87a" stroke-width="2" stroke-linecap="butt" stroke-linejoin="miter" stroke-miterlimit="10" stroke-dasharray="" stroke-dashoffset="0" font-family="Sans Serif" font-weight="normal" text-anchor="start" style="mix-blend-mode: normal"><tspan x="0" dy="0">78</tspan></text></g></g></svg>