<svg version="1.1" xmlns="http://www.w3.org/2000/svg" xmlns:xlink="http://www.w3.org/1999/xlink" width="80.27259" height="58.92616" viewBox="0,0,80.27259,58.92616"><g transform="translate(-283.41159,-148.03779)"><g data-paper-data="{&quot;isPaintingLayer&quot;:true}" fill-rule="nonzero" stroke-linecap="butt" stroke-linejoin="miter" stroke-miterlimit="10" stroke-dasharray="" stroke-dashoffset="0" style="mix-blend-mode: normal"><path d="M291.62457,192.91055c-3.24205,-1.85902 -5.37673,-7.24697 -6.21791,-10.26563c-1.07791,-2.95278 -1.9669,-6.31861 -1.96844,-9.4906c-0.0002,-0.40667 -0.15492,-2.42644 0.28368,-2.59459c1.32608,-0.50839 3.61067,4.31568 3.97914,5.25231c0.32644,0.67585 0.48076,2.50905 1.02538,2.00332c0.68738,-0.63829 0.68667,-2.88455 0.87063,-3.77392c0.71556,-3.45933 0.63626,-7.07621 1.29372,-10.5349l0.10591,-0.54458c0.04509,-0.25819 0.26462,-0.4541 0.52865,-0.4541c0.20158,0 0.37722,0.1142 0.46909,0.28311l0.53615,0.94525l-0.13321,0.07992c0.68001,1.12278 1.06137,2.3178 1.4381,3.71153c0.20922,0.77401 0.29716,1.0297 0.4637,1.77646c0.17117,-0.6202 0.53661,-1.37864 0.62563,-1.71459c0.67247,-2.538 1.35219,-5.05277 1.92727,-7.61571c0.5106,-2.2755 1.22768,-4.83655 2.53976,-6.77207c0.40904,-0.6034 0.90405,-1.82973 1.91154,-1.42201c1.96045,0.79336 1.94398,5.50251 2.59108,7.21474c0.27861,-0.89151 0.9754,-2.27268 1.08584,-2.5341c1.08203,-2.56126 1.54676,-5.74888 3.49459,-7.83767c1.9847,-2.12833 3.07494,2.12769 3.71684,3.57982c0.38269,1.08121 0.983,3.90047 1.96757,4.5769c0.17914,0.12308 0.99571,-1.73992 1.04513,-1.84101c0.769,-1.57309 2.85345,-8.43607 4.02389,-3.09599c0.07651,0.34906 0.12292,0.70439 0.18438,1.05658c0.38861,0.96158 0.5875,1.9041 0.88216,2.89215c0.11554,0.38743 0.10824,1.52459 0.30624,1.17422c0.58779,-1.04012 2.80769,-6.702 4.22814,-6.43051c1.26864,0.24248 2.35291,2.74096 2.78108,3.76325c0.28517,0.66161 1.25561,3.72178 1.81791,4.01751c0.38259,0.20121 1.88767,-3.21084 3.34729,-2.39152c1.83251,1.02863 1.98124,6.50906 2.20477,8.36578c0.13238,0.54195 0.83677,4.44429 1.33007,4.59892c3.47748,1.09007 5.04261,4.10566 5.04261,8.0369c0,0.15484 0,0.30968 0,0.46452c0.04339,-0.04924 0.08525,-0.09817 0.1241,-0.14674l0.42624,-0.54795c0.09834,-0.12867 0.25105,-0.2113 0.42252,-0.2113c0.27652,0 0.50423,0.21489 0.53386,0.49115l0.10697,0.88012l-0.1956,0.02514c0.11896,1.10657 0.00115,2.31088 -0.23168,3.46926v0.2346l-0.02359,0l0.02038,0.06028c-0.195,0.9134 -0.26578,1.41879 -0.49853,1.96387l0.14397,0.05552l-0.31917,0.87532c-0.07312,0.21572 -0.27265,0.37051 -0.50733,0.37051c-0.12172,0 -0.23398,-0.04164 -0.32406,-0.11182c-0.14739,0.25302 -0.28149,0.48717 -0.38069,0.69124c-1.9812,4.07584 -4.93678,6.61772 -9.28634,7.49679c-4.71371,1.82598 -9.73423,2.02861 -14.65317,1.01685c-5.24861,0.013 -10.41929,0.33546 -15.69415,0.33546c-2.86395,0 -5.66806,-0.55462 -8.52068,-0.55462l-0.70338,-0.49457c0,0 -0.15616,-0.1606 -0.16808,-0.37881zM341.57197,178.9254c-0.02588,0.03483 -0.05206,0.06955 -0.07882,0.10433l0.04632,0.02858c0.0105,-0.04472 0.02133,-0.08903 0.0325,-0.13291z" fill="#ffaf5a" stroke="none" stroke-width="0.5"/><path d="M345.44943,168.39175c0,2.20914 -1.79086,4 -4,4c-2.20914,0 -4,-1.79086 -4,-4c0,-2.20914 1.79086,-4 4,-4c2.20914,0 4,1.79086 4,4z" fill="#ff9628" stroke="#ff9628" stroke-width="1"/><path d="M293.86198,193.36321c-2.86492,-1.12157 -4.75128,-4.37221 -5.49461,-6.19341c-0.95252,-1.78145 -1.7381,-3.81211 -1.73946,-5.72582c-0.00017,-0.24535 -0.1369,-1.46391 0.25068,-1.56535c1.17182,-0.30672 3.19066,2.60371 3.51627,3.1688c0.28847,0.40775 0.42483,1.51375 0.9061,1.20863c0.60742,-0.38509 0.60679,-1.74029 0.76936,-2.27686c0.63232,-2.08707 0.56224,-4.26918 1.14322,-6.35586l0.09359,-0.32856c0.03984,-0.15577 0.23384,-0.27397 0.46716,-0.27397c0.17813,0 0.33334,0.0689 0.41452,0.17081l0.47378,0.57028l-0.11771,0.04822c0.60091,0.67739 0.93791,1.39836 1.27081,2.23922c0.18488,0.46697 0.2626,0.62124 0.40976,1.07177c0.15125,-0.37418 0.47419,-0.83175 0.55285,-1.03444c0.59425,-1.53121 1.19489,-3.04841 1.70308,-4.59467c0.4512,-1.37284 1.08487,-2.91796 2.24432,-4.08569c0.36146,-0.36404 0.79889,-1.1039 1.68919,-0.85792c1.7324,0.47865 1.71784,3.31975 2.28968,4.35276c0.2462,-0.53786 0.86193,-1.37114 0.95953,-1.52886c0.95616,-1.54525 1.36684,-3.46838 3.08809,-4.72858c1.75384,-1.28405 2.71724,1.28367 3.28448,2.15976c0.33818,0.65231 0.86866,2.35321 1.7387,2.76131c0.15831,0.07425 0.87988,-1.04972 0.92355,-1.11071c0.67955,-0.94907 2.52152,-5.08961 3.55582,-1.86786c0.06761,0.2106 0.10863,0.42497 0.16294,0.63745c0.34341,0.58014 0.51915,1.14877 0.77954,1.74488c0.1021,0.23374 0.09565,0.9198 0.27062,0.70842c0.51942,-0.62752 2.48109,-4.04342 3.7363,-3.87962c1.12106,0.14629 2.07921,1.65366 2.45757,2.27043c0.252,0.39916 1.10955,2.24541 1.60644,2.42382c0.33809,0.1214 1.66809,-1.93715 2.95792,-1.44284c1.61934,0.62058 1.75077,3.92701 1.9483,5.0472c0.11698,0.32696 0.73944,2.68131 1.17535,2.7746c3.07297,0.65765 4.45603,2.47701 4.45603,4.84878c0,0.09342 0,0.18683 0,0.28025c0.03834,-0.02971 0.07533,-0.05923 0.10966,-0.08853l0.37666,-0.33059c0.0869,-0.07763 0.22185,-0.12748 0.37338,-0.12748c0.24435,0 0.44558,0.12965 0.47176,0.29632l0.09453,0.53099l-0.17285,0.01517c0.10513,0.66761 0.00102,1.39419 -0.20473,2.09306v0.14153h-0.02085l0.01801,0.03637c-0.17232,0.55107 -0.23487,0.85598 -0.44054,1.18483l0.12722,0.0335l-0.28204,0.52809c-0.06461,0.13015 -0.24093,0.22353 -0.44832,0.22353c-0.10756,0 -0.20676,-0.02512 -0.28636,-0.06746c-0.13024,0.15265 -0.24875,0.29392 -0.3364,0.41704c-1.75074,2.45901 -4.36251,3.99257 -8.20611,4.52292c-4.16539,1.10164 -8.6019,1.22389 -12.94865,0.61348c-4.63806,0.00784 -9.20727,0.20239 -13.86854,0.20239c-2.53081,0 -5.00873,-0.33461 -7.52952,-0.33461l-0.62156,-0.29838c0,0 -0.13799,-0.09689 -0.14853,-0.22854zM337.99927,184.92575c-0.02287,0.02102 -0.046,0.04196 -0.06965,0.06294l0.04093,0.01724c0.00928,-0.02698 0.01885,-0.05372 0.02872,-0.08019z" fill="#ffc759" stroke="none" stroke-width="0.5"/><text transform="translate(294.26815,190.61993) scale(0.89336,0.89336)" font-size="40" xml:space="preserve" fill="#ff9628" fill-rule="nonzero" stroke="#ff9628" stroke-width="2" stroke-linecap="butt" stroke-linejoin="miter" stroke-miterlimit="10" stroke-dasharray="" stroke-dashoffset="0" font-family="Sans Serif" font-weight="normal" text-anchor="start" style="mix-blend-mode: normal"><tspan x="0" dy="0">80</tspan></text><text transform="translate(350.60305,193.84346) scale(1.04964,1.04964)" font-size="40" xml:space="preserve" fill="#f80000" fill-rule="nonzero" stroke="none" stroke-width="1" stroke-linecap="butt" stroke-linejoin="miter" stroke-miterlimit="10" stroke-dasharray="" stroke-dashoffset="0" font-family="Sans Serif" font-weight="normal" text-anchor="start" style="mix-blend-mode: normal"><tspan x="0" dy="0">!</tspan></text></g></g></svg>