<svg version="1.1" xmlns="http://www.w3.org/2000/svg" xmlns:xlink="http://www.w3.org/1999/xlink" width="944" height="504" viewBox="0,0,944,504"><g transform="translate(304,100)"><g data-paper-data="{&quot;isPaintingLayer&quot;:true}" fill-rule="nonzero" stroke-linecap="butt" stroke-linejoin="miter" stroke-miterlimit="10" stroke-dasharray="" stroke-dashoffset="0" style="mix-blend-mode: normal"><path d="M-65,404v-448h705v448z" fill="#be0000" stroke="none" stroke-width="0"/><path d="M-304,-94.5c0,-3.03757 2.46244,-5.5 5.5,-5.5c3.03756,0 5.5,2.46243 5.5,5.5c0,3.03757 -2.46244,5.5 -5.5,5.5c-3.03756,0 -5.5,-2.46243 -5.5,-5.5z" fill="#be0000" stroke="none" stroke-width="0.5"/><path d="M-194,-39.5c0,-3.03757 2.46243,-5.5 5.5,-5.5c3.03757,0 5.5,2.46243 5.5,5.5c0,3.03757 -2.46243,5.5 -5.5,5.5c-3.03757,0 -5.5,-2.46243 -5.5,-5.5z" fill="#be0000" stroke="none" stroke-width="0.5"/><path d="M288.95967,53.58065c4.91935,2.45967 2.45967,7.37902 2.45967,7.37902l-2.8685,4.1166c-2.09675,1.39358 -4.09843,2.94206 -6.29025,4.18073c-0.79505,0.44931 -1.97358,0.18741 -2.6056,0.8466c-0.60496,0.63097 -0.07141,1.88128 -0.64348,2.54221c-1.67097,1.93054 -3.92462,3.26798 -5.84345,4.95238c-2.74038,2.40559 -5.12616,5.73596 -7.51307,8.50541c-1.45168,1.68433 -3.4873,5.07808 -5.66629,7.15238c0.0113,0.15514 0.0113,0.24401 0.0113,0.24401c0,8.62976 0.19424,17.36153 -1.07102,25.881c-0.34625,2.33144 -1.65654,4.45496 -1.97019,6.79101c-0.31828,2.37052 -0.52465,4.78526 -1.24103,7.06724l0.28224,-0.73925c0,0 0,5.5 -5.5,5.5c-5.5,0 -5.5,-5.5 -5.5,-5.5l0.28224,-2.73925c0.57493,-1.5611 0.51223,-3.28755 0.75897,-4.93276c0.37026,-2.46883 1.69551,-4.73504 2.02981,-7.20899c1.07572,-7.9608 0.92898,-16.0537 0.92898,-24.119c0,0 0,-1.49679 0.78084,-2.9287c-0.42767,-0.42925 -0.82151,-0.8338 -1.16992,-1.18221c-5.24945,-5.24945 -9.84,-10.62606 -16.57059,-13.96974c0,0 -4.91935,-2.45967 -2.45967,-7.37902c2.45967,-4.91935 7.37902,-2.45967 7.37902,-2.45967c7.03856,3.53873 11.91601,8.51686 17.42941,14.03026c0.31383,0.31383 0.62766,0.62766 0.9415,0.9415c1.67457,-1.89703 4.44265,-3.98896 5.01442,-4.65602c2.9204,-3.40714 2.37569,-3.8991 5.48693,-6.49459c1.31925,-1.10056 3.0458,-1.73694 4.15655,-3.04762c0.80047,-0.94455 0.47193,-2.59151 1.35652,-3.45779c1.4881,-1.4573 3.6305,-2.04578 5.3944,-3.1534c1.93917,-1.21767 3.8065,-2.54618 5.70975,-3.81927l-0.8685,0.1166c0,0 2.45967,-4.91935 7.37902,-2.45967z" fill="#b40000" stroke="none" stroke-width="0.5"/><path d="M296.39952,83.79729c-0.77448,1.29088 -1.54772,2.6634 -2.56439,4.08747c-0.50736,0.71068 -1.38021,1.11048 -1.8733,1.83114c-3.75474,5.48761 -5.56868,13.74994 -5.97868,20.35388c-0.14855,2.39264 2.96559,5.13346 4.40594,6.54113c1.38488,1.35346 2.41144,3.10664 4.00243,4.21051c3.00544,2.08524 8.66254,2.20525 12.10848,2.17858c6.76073,0.22659 11.55671,-4.31755 16.26303,-8.53547c3.5694,-3.19899 5.38931,-7.49812 3.88776,-12.36931c-0.77882,-2.52657 -4.53019,-2.74546 -6.63773,-4.34184c-1.41306,-1.07033 -2.21739,-2.86555 -3.72897,-3.79155c-2.49952,-1.53122 -5.45896,-2.15725 -8.08231,-3.46501c-2.48968,-1.24113 -4.79085,-2.93325 -7.44104,-3.77906l0.73925,0.28224c0,0 -3.8353,0 -5.10048,-3.20271zM303.33178,76.18874l0.90748,0.0935c3.00892,1.03224 5.71552,2.79477 8.55896,4.22094c3.24931,1.62974 6.84604,2.59102 9.91769,4.53499c1.68888,1.06885 2.66575,3.01773 4.27103,4.20845c2.31399,1.7164 7.86265,4.43671 9.36227,7.65816c8.58479,18.44163 -12.89308,36.78494 -29.84921,37.09522c-5.53872,-0.03264 -13.02333,-0.63841 -17.89152,-3.82142c-0.58295,-0.38116 -4.80398,-4.57439 -5.99757,-5.78949c-3.44246,-3.5045 -7.41065,-8.15792 -7.59406,-13.45887c-0.08018,-2.31741 0.76606,-4.57709 1.00189,-6.88386c0.73548,-7.19398 2.96832,-14.5765 7.01943,-20.76226c0.55473,-0.84704 1.53797,-1.34509 2.1267,-2.16886c3.42825,-4.79696 5.30692,-8.7466 10.28428,-12.19151c0,0 4.57628,-3.05085 7.62713,1.52543c1.60729,2.41094 1.09765,4.39848 0.2555,5.73959z" fill="#b40000" stroke="none" stroke-width="0.5"/><path d="M389.99211,94.86819c-0.58852,-0.79203 -0.99211,-1.87832 -0.99211,-3.36819c0,-5.5 5.5,-5.5 5.5,-5.5l6.5,5.5c0,5.37801 0.80465,11.59279 -0.07102,16.881c-0.71792,4.33555 -3.1761,7.60644 -6.1756,10.60594c-0.90268,1.2393 -1.4291,2.87231 -2.70804,3.71789c-3.03535,2.00683 -6.65505,2.95435 -9.89348,4.61364c-1.20989,0.61992 -2.17252,1.68707 -3.42681,2.21136c-7.06591,2.95352 -17.29351,3.99002 -24.11657,-0.35125c-4.51654,-2.87372 -6.37693,-8.05025 -8.24945,-12.72399c-2.78171,-6.94304 -5.87363,-13.77734 -7.30587,-21.19174c-0.56994,-2.95049 -0.05316,-6.7398 -0.05316,-9.76286c0,0 0,-5.5 5.5,-5.5c5.5,0 5.5,5.5 5.5,5.5c0,2.49133 -0.56321,5.80236 -0.05316,8.23714c1.36966,6.53834 4.23914,12.66012 6.69413,18.80826c0.85382,2.13825 1.50536,6.18615 3.75055,7.27601c4.09599,1.98828 9.83291,1.45153 13.88343,-0.35125c0.95434,-0.42475 1.63315,-1.33313 2.57319,-1.78864c2.63537,-1.277 5.59885,-1.87391 8.10652,-3.38636c0.74854,-0.45146 0.8613,-1.52141 1.29196,-2.28211c1.53638,-1.53638 2.30604,-2.05683 3.31265,-3.92949c0.88427,-1.64508 0.46423,-2.55879 0.44073,-4.58357c-0.03338,-2.87626 -0.01874,-5.75439 -0.00789,-8.63181z" fill="#b40000" stroke="none" stroke-width="0.5"/><path d="M218.5,298c-5.5,0 -5.5,-5.5 -5.5,-5.5v-3c0.05809,-1.73323 -0.64388,-3.40839 -0.92898,-5.119c-0.02214,-0.13284 -0.04324,-0.26589 -0.06346,-0.39912c-0.72692,-0.01089 -1.2649,-0.02757 -1.38856,-0.0529c-1.73316,-0.35504 -3.45056,-0.91587 -5.01052,-1.7504c-1.34243,-0.71815 -2.37053,-2.09241 -3.84773,-2.46082c0,0 -1.97602,-0.65867 -3.09065,-2.38137c-1.31042,-0.47091 -2.5403,-1.26953 -3.63193,-2.62049c-1.32027,-1.63392 -0.69211,-4.14394 -1.03817,-6.21591c0,-8.59566 1.00896,-17.92217 0.02677,-26.45804c-0.19429,-1.68853 -0.8715,-3.30519 -1,-5c-0.26867,-3.54351 0.6788,-7.16438 0.04425,-10.66095c-0.18822,-1.03715 -0.85805,-1.95551 -1,-3c-0.53331,-3.92433 -0.07102,-7.9206 -0.07102,-11.881c0,-6.33333 0,-12.66667 0,-19c0,0 0,-5.5 5.5,-5.5c5.5,0 5.5,5.5 5.5,5.5c0,6.33333 0,12.66667 0,19c0,3.37308 -0.57732,6.78413 -0.07102,10.119c0.15822,1.04215 0.83788,1.95845 1,3c0.58131,3.73474 -0.25013,7.57082 0.04425,11.33905c0.13238,1.69451 0.81816,3.31008 1,5c0.90689,8.42792 0.12721,17.45808 0.03536,25.99852c0.16828,0.02447 0.33389,0.04344 0.49141,0.04344c2.37312,0 4.75392,0.26614 7.119,0.07102c2.48798,-0.20526 4.74017,-1.65955 7.20899,-2.02981c5.38014,-0.80689 7.34707,-1.22746 13.56725,-3.62255c1.45656,-0.56085 2.73346,-1.53345 4.19655,-2.07703c1.10978,-0.41232 2.43368,-0.19276 3.46718,-0.77026c1.59174,-0.88944 2.74691,-2.40255 4.19463,-3.51107c2.32543,-1.78058 4.93593,-3.07581 6.28023,-5.92404c0.56529,-1.1977 0.41526,-2.64371 0.93633,-3.8613c0.45599,-1.06552 1.53533,-1.79687 1.94849,-2.87971c1.99962,-5.2408 1.58134,-11.44955 1.58134,-16.89524c0,-7.93574 -1.39797,-17.69462 -6.52065,-24.24709c-0.59258,-0.75798 -1.70895,-0.90613 -2.46629,-1.49953c-4.10637,-3.21752 -7.8543,-6.12861 -12.61782,-8.17204c-2.60891,-1.11916 -4.87045,-3.05731 -7.59608,-3.85093c-1.82275,-0.53073 -3.77076,-0.48504 -5.62494,-0.89259c-3.51126,-0.77178 -7.03332,-2.28269 -10.55522,-2.90884c-3.46377,-0.61582 -7.77135,-0.21986 -11.33573,0.55887c-0.64719,0.58135 -4.15977,3.41382 -7.67235,-0.09876c-3.88909,-3.88909 0,-7.77817 0,-7.77817l3.55514,-2.4467c5.30782,-1.27859 11.70751,-1.97319 17.21495,-1.0932c3.82933,0.61186 7.65695,2.24083 11.44478,3.09116c2.10447,0.47244 4.31321,0.47436 6.37506,1.10741c1.40998,0.43291 6.71293,3.42505 8.40392,4.14907c5.78085,2.47514 10.47401,5.83623 15.38218,9.82796c1.11948,0.91045 2.64963,1.36005 3.53371,2.50047c6.93605,8.94713 9.47935,20.73383 9.47935,31.75291c0,3.55736 0.44572,7.14813 -0.04121,10.67201c-0.48821,3.53317 -1.13997,7.08757 -2.37745,10.43275c-0.43187,1.16744 -1.56062,1.97641 -2.05151,3.12029c-0.56174,1.30896 -0.40674,2.87484 -1.06367,4.1387c-2.42335,4.66222 -5.71831,7.12317 -9.71977,10.07596c-1.96826,1.45244 -3.66487,3.3049 -5.80537,4.48893c-1.34662,0.7449 -3.01078,0.67848 -4.45787,1.20201c2.17834,6.50135 -3.60615,6.37729 -7.09163,8.54794c-1.96324,1.22265 -3.39426,3.25254 -5.47509,4.26215c-1.80987,0.87815 -3.54397,1.27485 -5.2991,1.44888c0.24873,1.92047 0.35059,3.85775 0.38267,5.61039v3c0,0 0,5.5 -5.5,5.5z" fill="#b40000" stroke="none" stroke-width="0.5"/><path d="M291.95967,292.41935c-4.91935,2.45967 -7.37902,-2.45967 -7.37902,-2.45967l-1.58065,-4.45967c0.13955,-0.29841 0.5794,-0.60768 0.41866,-0.89524c-0.32622,-0.58361 -1.24911,-0.64243 -1.59724,-1.21324c-0.3572,-0.58567 -0.5381,-1.254 -0.72276,-1.92191c-0.68942,0.32764 -1.54266,0.53039 -2.59866,0.53039c-5.5,0 -5.5,-5.5 -5.5,-5.5l0.28224,-0.26075c-3.56921,-11.36942 -1.38309,-23.16344 -2.21122,-34.85825c-0.07446,-1.05146 -0.83788,-1.95845 -1,-3c-1.12764,-7.24478 -0.07102,-16.72567 -0.07102,-23.881c0,-8.17982 0.90216,-16.43681 -1.71776,-24.26075c0,0 -1.73925,-5.21776 3.47851,-6.95701c5.21776,-1.73925 6.95701,3.47851 6.95701,3.47851c2.0486,6.1705 2.36708,12.3974 2.36068,18.71929c0.44746,0.70512 0.63932,1.28071 0.63932,1.28071c0.40374,1.28608 0.99089,2.52841 1.21122,3.85825c0.3269,1.9731 -0.35712,4.03214 0,6c1.61552,8.90208 3.26107,18.48253 2,27.762c-0.14195,1.04449 -0.81178,1.96285 -1,3c-0.30471,1.67907 0.07102,3.4125 0.07102,5.119c0,3.94521 -0.32004,7.37194 0.92898,11.119c-0.14093,4.84646 3.42122,7.31402 5.51175,11.46457c0.39443,0.78311 0.29157,1.77014 0.73785,2.52491c0.62425,1.05578 1.98984,1.63183 2.40276,2.78676c0.57477,1.60764 0.27911,3.40317 0.41866,5.10476l0.41935,-0.45967c0,0 2.45967,4.91935 -2.45967,7.37902z" fill="#b40000" stroke="none" stroke-width="0.5"/><path d="M323.04033,302.41935c-4.91935,-2.45967 -2.45967,-7.37902 -2.45967,-7.37902l0.70159,-1.27958c0.88756,-2.66268 1.71776,-4.4987 1.71776,-7.26075c0,-0.69175 -0.12019,-1.40904 0.05895,-2.07575c-0.10714,-0.07159 -0.21541,-0.1418 -0.32455,-0.21095c-2.65722,-0.70873 -4.08882,-2.78955 -6.12349,-4.82421c0,0 -0.86558,-0.86558 -1.37168,-2.18839c-3.2962,-5.0259 -4.98406,-10.999 -6.18607,-16.93784c-0.19057,-0.94154 0.17607,-1.93434 0.01786,-2.88185c-0.17361,-1.0397 -0.83238,-1.95932 -1,-3c-0.85531,-5.31022 -0.36816,-11.00516 -1.04425,-16.33905c-1.37528,-10.85005 -1.83263,-21.6242 -1.97153,-32.5025c-3.05524,-1.32281 -3.05524,-5.03946 -3.05524,-5.03946c0.13955,-2.03492 -0.32474,-4.20536 0.41866,-6.10476c0.66687,-1.70386 2.18543,-2.98128 3.5944,-4.14862c5.78578,-4.79358 16.31223,-9.45643 23.5056,-11.15836c1.65445,-0.39144 3.41346,0.1946 5.10033,-0.01724c1.04588,-0.13134 1.95016,-0.90536 3,-1c3.94441,-0.35557 7.92587,-0.27533 11.881,-0.07102c1.70503,0.08808 3.53842,-0.26064 5.10476,0.41866c1.67865,0.72801 2.91235,2.24551 4.14862,3.5944c0.53559,0.58437 0.4576,1.63169 1.08508,2.11605c0.69799,0.53879 1.70204,0.46154 2.55306,0.69231l2.99757,2.78949c0,0 3.88909,3.88909 0,7.77817c-3.88909,3.88909 -7.77817,0 -7.77817,0l-1.00243,-1.21051c-1.14898,-0.4359 -2.49485,-0.53073 -3.44694,-1.30769c-1.25411,-1.02343 -2.03763,-2.52359 -2.91492,-3.88395c-0.07804,-0.12101 0.29259,-0.40812 0.14862,-0.4056c-8.57111,0.14994 -17.66492,0.51188 -25.69679,3.96017c-2.25917,0.96992 -4.62566,1.71825 -6.78202,2.89922c-0.66618,0.36484 -1.29614,0.7887 -1.91578,1.22961c0.01108,9.74462 0.16856,19.34597 0.87149,28.9655c5.7707,-4.13808 13.79652,-4.1372 20.54922,-5.52904l3.07864,-0.10681c0,0 5.5,0 5.5,5.5c0,5.5 -5.5,5.5 -5.5,5.5l-0.92136,-0.10681c-5.08776,0.99247 -9.53128,1.64716 -14.54091,2.88747c-0.74141,0.18356 -3.21552,1.13636 -3.45639,1.8241c-0.1089,0.31091 0.39059,0.56701 0.41866,0.89524c0.11362,1.32848 0,2.66667 0,4c0,0 0,4.16182 -3.62029,5.24488c0.05509,2.33426 0.16345,4.65069 0.54927,6.87412c0.18022,1.03857 0.82701,1.9602 1,3c1.12254,6.74739 1.68198,14.80995 7.98745,18.94027c1.8431,0.61437 3.34694,2.02562 5.17738,2.67673c0.61534,0.21889 1.29922,-0.28308 1.94814,-0.20923c2.67018,0.3039 5.33333,0.66667 8,1c4.463,0.55787 8.96032,0.98218 13.45804,0.97323c2.88608,-0.00574 5.77823,0.19767 8.65824,0.01063c1.95434,-0.12693 3.88796,-0.54459 5.84176,-0.64538v-2.86525c0,0 0,-5.5 5.5,-5.5c5.5,0 5.5,5.5 5.5,5.5v3c-0.21693,1.86507 0.37049,4.01961 -0.65079,5.59522c-4.31015,6.64959 -13.08465,5.89709 -19.84921,5.90478c-6.64527,0.00756 -12.98964,-0.20773 -19.54196,-1.02677c-2.63091,-0.32886 -5.26465,-0.63581 -7.89284,-0.98571c-0.4047,3.23694 -1.41714,6.46081 -2.34745,9.25173l-1.29841,2.72042c0,0 -2.45967,4.91935 -7.37902,2.45967z" fill="#b40000" stroke="none" stroke-width="0.5"/><path d="M439.5,294c-5.5,0 -5.5,-5.5 -5.5,-5.5v-3c0.12716,-3.79422 -1.39945,-7.41226 -1.92898,-11.119c-0.07348,-0.51433 -0.13402,-1.03077 -0.18665,-1.54846c-0.01522,0.01286 -0.03052,0.02564 -0.04591,0.03834c-0.94785,0.78214 -2.39476,0.67281 -3.44694,1.30769c-0.69837,0.4214 -0.98286,1.35268 -1.67561,1.78325c-0.3548,0.22053 -9.04747,4.6337 -10.75623,5.45752c-1.72279,0.83058 -3.3302,2.01335 -5.19603,2.43352c-0.42352,0.09537 -0.85139,0.15602 -1.28226,0.19256c1.06444,1.6307 1.88662,3.37756 2.37149,5.19093c1.11046,4.15302 -0.81452,8.20692 -2.13511,12.00289c-0.16606,0.47734 -0.30303,0.96864 -0.48028,1.44201c1.37916,0.68541 2.76252,2.06039 2.76252,4.81874c0,5.5 -5.5,5.5 -5.5,5.5l-4.88909,-1.61091c-1.06408,-1.26144 -2.63007,-2.23273 -3.19225,-3.78433c-0.68083,-1.87908 -0.5223,-3.99479 -0.34764,-5.98576c0.02884,-0.32873 1.95646,-6.12593 2.21122,-6.85825c0.34165,-0.98207 1.21342,-2.01746 0.86489,-2.99711c-0.83252,-2.34002 -2.90779,-3.63327 -4.53622,-5.37455c-0.75227,-0.8044 -1.78155,-1.40482 -2.85017,-1.67133c0,0 -5.21776,-1.73925 -3.47851,-6.95701c0.0644,-0.19319 0.13356,-0.37685 0.20706,-0.5514c-0.14623,-0.16934 -0.29629,-0.33421 -0.45113,-0.49344c-1.29701,-2.65076 -2.91222,-5.16826 -3.89104,-7.95227c-0.36295,-1.03233 0.22747,-2.22616 -0.05888,-3.2823c-0.74525,-2.74877 -2.31095,-5.23661 -3,-8c-0.33069,-1.32618 0.16754,-2.74609 -0.01724,-4.10033c-0.57011,-4.17832 -2.42928,-8.10802 -3.03818,-12.28086c-0.22714,-1.55661 0.23269,-3.15811 0.03818,-4.71914c-0.13033,-1.046 -0.85805,-1.95551 -1,-3c-0.74696,-5.49641 -0.07102,-13.92469 -0.07102,-18.881c0,-6.16171 -0.59039,-12.77895 0.07102,-18.881c0.18688,-1.7241 0.98707,-3.38577 0.92898,-5.119c0,0 0,-1.26499 0.60667,-2.58164l-2.36741,0.7994c0,0 -5.21776,1.73925 -6.95701,-3.47851c-1.73925,-5.21776 3.47851,-6.95701 3.47851,-6.95701l2.63449,-0.86358c1.61371,-0.75718 3.12708,-1.78222 4.84112,-2.27153c1.08451,-0.3096 2.26977,0.107 3.38264,-0.07611c3.64321,-0.59945 7.33191,-2.48358 11,-3c3.92173,-0.55213 7.9206,-0.07102 11.881,-0.07102c3.02445,0 7.12688,-0.58861 10.04009,0.09924c2.03227,0.47985 3.89391,1.51004 5.85168,2.23634c4.47831,1.66138 9.08494,4.07502 11.78681,8.2729c0.66699,1.0363 0.6638,2.39769 1.26215,3.47509c1.16704,2.10138 2.84414,3.89245 4,6c3.72606,6.79395 5.1917,15.21458 7.48825,22.53543c0.25961,14.18676 1.14117,30.11541 -5.48825,43.29744c-0.54636,1.08639 -1.26565,2.18427 -2.07251,3.26855c0.85958,3.80368 0.99734,7.49007 1.56076,11.43401c0.62713,4.38993 1.98801,8.34497 2.07102,12.881v3c0,0 0,5.5 -5.5,5.5zM408.93978,303.36039c-0.00358,0.00688 -0.00718,0.01375 -0.0108,0.02062c-0.05408,0.1026 -0.45139,-0.0376 -0.34764,0.01424c0.24929,0.12457 0.5385,0.14378 0.80775,0.21567zM388.45025,185.71608c2.54975,1.48945 2.54975,4.78392 2.54975,4.78392c-0.04247,2.3209 -0.80714,4.57477 -1.07102,6.881c-0.62666,5.47679 0.07102,11.58019 0.07102,17.119c0,3.66491 -0.7869,12.40365 -0.07102,17.119c0.15822,1.04215 0.86887,1.9541 1,3c0.21898,1.74666 -0.20508,3.53742 0.03818,5.28086c0.55679,3.99055 2.37022,7.7336 2.96182,11.71914c0.19086,1.28581 -0.33329,2.63877 -0.01724,3.89967c0.69246,2.76254 2.24632,5.25353 3,8c0.23979,0.87381 -0.32165,1.85052 -0.05888,2.7177c0.44121,1.45602 1.40598,2.69849 2.10896,4.04773c0.59718,0.57632 1.34733,1.02794 1.79155,1.72897c0.2985,0.47106 0.00539,1.19298 0.34184,1.63773c0.15413,0.20374 0.15386,-0.60283 0.40478,-0.65079c0.98222,-0.18774 2.00024,-0.02184 3,0c1.24612,0.02722 2.51829,0.41147 3.73636,0.14713c1.04627,-0.22706 1.85572,-1.06943 2.80397,-1.56648c3.04077,-1.5939 6.33746,-2.71485 9.24377,-4.54248c0.90634,-0.56995 1.40486,-1.66831 2.32439,-2.21675c0.75729,-0.45167 1.84881,-0.16172 2.55306,-0.69231c0.57805,-0.43551 0.51033,-1.37874 0.9544,-1.95025c2.40368,-3.09351 5.70598,-5.58401 7.44333,-9.09529c5.6438,-11.40642 4.10468,-24.5567 4.51175,-36.70256c-2.27324,-6.1985 -3.23341,-13.64731 -6.51175,-19.46457c-1.18012,-2.09406 -2.83232,-3.89897 -4,-6c-0.42595,-0.76643 -0.33956,-1.74375 -0.73785,-2.52491c-1.63761,-3.21188 -9.27322,-5.45251 -12.32142,-5.39152c-5.27308,0.10551 -10.94815,-0.82583 -16.119,-0.07102c-3.29646,0.4812 -6.62237,2.03507 -9.93075,2.7871z" fill="#b40000" stroke="none" stroke-width="0.5"/><text transform="translate(56.45105,162.84667) scale(0.48075,0.48075)" font-size="40" xml:space="preserve" fill="#000000" fill-rule="nonzero" stroke="#000000" stroke-width="1" stroke-linecap="butt" stroke-linejoin="miter" stroke-miterlimit="10" stroke-dasharray="" stroke-dashoffset="0" font-family="Serif" font-weight="normal" text-anchor="start" style="mix-blend-mode: normal"><tspan x="0" dy="0">You died to Sabrina The Goat. Keep the temperature within her means.</tspan></text></g></g></svg>